External Loads File
version=1
nRows=78
nColumns=13
Range=5.000000e-03-10 seconds
endheader
time 	forceRightX 	forceRightY 	forceRightZ 	pointRightX 	pointRightY 	pointRightZ 	forceLeftX 	forceLeftY 	forceLeftZ 	pointLeftX 	pointLeftY 	pointLeftZ 		
2.505000 9.600594 240.665965 -0.000000 0.123500 0.222249 -0.141870 -149.130593 108.247578 -0.000000 0.394874 0.433386 -0.371380
2.510000 9.120391 240.618330 -0.000000 0.123650 0.221952 -0.141870 -149.132086 107.751663 -0.000000 0.394625 0.433735 -0.371398
2.515000 8.823736 240.457003 -0.000000 0.123664 0.221639 -0.141708 -149.015536 107.092261 -0.000000 0.394387 0.434021 -0.371386
2.520000 8.542653 240.157827 -0.000000 0.123834 0.221334 -0.141702 -148.863505 106.132542 -0.000000 0.394113 0.434345 -0.371372
2.525000 8.388904 239.687632 -0.000000 0.124016 0.221071 -0.141756 -148.629077 104.945567 -0.000000 0.393816 0.434676 -0.371391
2.530000 8.333229 239.020647 -0.000000 0.124171 0.220800 -0.141756 -148.323046 103.534757 -0.000000 0.393516 0.435067 -0.371432
2.535000 8.313612 238.129716 -0.000000 0.124384 0.220414 -0.141742 -147.962191 101.904836 -0.000000 0.393238 0.435477 -0.371455
2.540000 8.363608 236.986598 -0.000000 0.124600 0.219944 -0.141675 -147.517552 100.148343 -0.000000 0.392955 0.435889 -0.371458
2.545000 8.588972 235.581317 -0.000000 0.124799 0.219598 -0.141614 -146.939570 98.407790 -0.000000 0.392664 0.436339 -0.371394
2.550000 8.973628 233.947031 -0.000000 0.125018 0.219280 -0.141591 -146.246474 96.722542 -0.000000 0.392357 0.436756 -0.371331
2.555000 9.463562 232.160566 -0.000000 0.125273 0.218965 -0.141619 -145.485026 95.078374 -0.000000 0.392027 0.437213 -0.371380
2.560000 10.030312 230.323389 -0.000000 0.125586 0.218605 -0.141679 -144.699772 93.472630 -0.000000 0.391680 0.437673 -0.371465
2.565000 10.703029 228.535342 -0.000000 0.125749 0.218150 -0.141640 -143.914243 91.954298 -0.000000 0.391382 0.438140 -0.371491
2.570000 11.290441 226.900347 -0.000000 0.126014 0.217633 -0.141663 -143.242360 90.441225 -0.000000 0.391089 0.438624 -0.371415
2.575000 11.903664 225.509007 -0.000000 0.126270 0.217266 -0.141564 -142.679332 89.037618 -0.000000 0.390792 0.439089 -0.371407
2.580000 12.342591 224.456273 -0.000000 0.126608 0.216848 -0.141642 -142.333772 87.659320 -0.000000 0.390456 0.439582 -0.371390
2.585000 12.712969 223.778350 -0.000000 0.126862 0.216424 -0.141614 -142.166738 86.435743 -0.000000 0.390109 0.440076 -0.371387
2.590000 12.899655 223.464234 -0.000000 0.127225 0.215968 -0.141640 -142.197140 85.365273 -0.000000 0.389751 0.440582 -0.371385
2.595000 12.967605 223.443961 -0.000000 0.127559 0.215475 -0.141620 -142.345892 84.552583 -0.000000 0.389401 0.441050 -0.371441
2.600000 12.742434 223.634628 -0.000000 0.128056 0.214961 -0.141673 -142.599488 83.923551 -0.000000 0.389013 0.441615 -0.371412
2.605000 12.433110 223.927785 -0.000000 0.128303 0.214421 -0.141548 -142.797034 83.592414 -0.000000 0.388556 0.442185 -0.371389
2.610000 11.906857 224.249412 -0.000000 0.128728 0.213871 -0.141548 -142.933813 83.378155 -0.000000 0.388050 0.442775 -0.371437
2.615000 11.323334 224.531767 -0.000000 0.129155 0.213264 -0.141482 -142.932715 83.223743 -0.000000 0.387612 0.443404 -0.371441
2.620000 10.714651 224.729643 -0.000000 0.129700 0.212705 -0.141493 -142.790906 82.977345 -0.000000 0.387075 0.444031 -0.371375
2.625000 10.212051 224.794077 -0.000000 0.130147 0.212115 -0.141492 -142.474818 82.592939 -0.000000 0.386449 0.444652 -0.371440
2.630000 9.849904 224.675436 -0.000000 0.130561 0.211463 -0.141422 -141.972216 82.039010 -0.000000 0.385899 0.445321 -0.371493
2.635000 9.605667 224.327864 -0.000000 0.131058 0.210875 -0.141403 -141.280698 81.314915 -0.000000 0.385313 0.445994 -0.371434
2.640000 9.419435 223.722540 -0.000000 0.131487 0.210149 -0.141357 -140.422203 80.426001 -0.000000 0.384682 0.446663 -0.371496
2.645000 9.325425 222.848614 -0.000000 0.132028 0.209548 -0.141402 -139.397404 79.441808 -0.000000 0.384064 0.447327 -0.371524
2.650000 9.328375 221.714672 -0.000000 0.132561 0.209056 -0.141363 -138.209062 78.416680 -0.000000 0.383451 0.447986 -0.371554
2.655000 9.223560 220.353268 -0.000000 0.133079 0.208417 -0.141328 -136.908269 77.278139 -0.000000 0.382754 0.448666 -0.371545
2.660000 9.136774 218.796943 -0.000000 0.133576 0.207723 -0.141402 -135.409404 76.157738 -0.000000 0.382197 0.449334 -0.371492
2.665000 9.115281 217.096227 -0.000000 0.133940 0.207222 -0.141280 -133.668184 75.122488 -0.000000 0.381587 0.449988 -0.371588
2.670000 8.924973 215.329870 -0.000000 0.134472 0.206635 -0.141278 -131.784637 74.033969 -0.000000 0.380978 0.450593 -0.371622
2.675000 8.698643 213.571949 -0.000000 0.134953 0.206032 -0.141244 -129.779588 72.942185 -0.000000 0.380464 0.451227 -0.371633
2.680000 8.498852 211.902227 -0.000000 0.135394 0.205549 -0.141266 -127.718686 71.828950 -0.000000 0.379970 0.451836 -0.371598
2.685000 8.334578 210.402742 -0.000000 0.135813 0.205051 -0.141354 -125.682657 70.641776 -0.000000 0.379478 0.452313 -0.371670
2.690000 8.265454 209.150596 -0.000000 0.136198 0.204642 -0.141364 -123.735897 69.368312 -0.000000 0.379055 0.452806 -0.371724
2.695000 8.253172 208.212329 -0.000000 0.136701 0.204249 -0.141455 -121.994689 67.950836 -0.000000 0.378713 0.453263 -0.371712
2.700000 8.546769 207.612842 -0.000000 0.136832 0.203951 -0.141275 -120.500491 66.520220 -0.000000 0.378433 0.453665 -0.371732
2.705000 8.905769 207.357752 -0.000000 0.137070 0.203677 -0.141219 -119.436885 64.948709 -0.000000 0.378191 0.453958 -0.371780
2.710000 9.316331 207.406609 -0.000000 0.137284 0.203383 -0.141240 -118.850492 63.268703 -0.000000 0.378031 0.454245 -0.371768
2.715000 9.710714 207.694043 -0.000000 0.137581 0.203107 -0.141331 -118.731096 61.496738 -0.000000 0.377907 0.454497 -0.371746
2.720000 10.195812 208.131180 -0.000000 0.137708 0.202893 -0.141344 -118.960090 59.751715 -0.000000 0.377832 0.454705 -0.371762
2.725000 10.711500 208.627618 -0.000000 0.137765 0.202773 -0.141347 -119.435587 58.050064 -0.000000 0.377783 0.454852 -0.371806
2.730000 11.166248 209.092047 -0.000000 0.137834 0.202673 -0.141352 -120.052233 56.384670 -0.000000 0.377791 0.454977 -0.371781
2.735000 11.558143 209.434910 -0.000000 0.137843 0.202579 -0.141358 -120.695171 54.806137 -0.000000 0.377830 0.455073 -0.371781
2.740000 11.903643 209.582551 -0.000000 0.137840 0.202573 -0.141357 -121.290183 53.376095 -0.000000 0.377891 0.455106 -0.371759
2.745000 12.159387 209.498250 -0.000000 0.137814 0.202554 -0.141386 -121.829759 52.097039 -0.000000 0.377976 0.455126 -0.371763
2.750000 12.380850 209.179143 -0.000000 0.137770 0.202576 -0.141416 -122.300349 50.999933 -0.000000 0.378081 0.455134 -0.371766
2.755000 12.664428 208.638415 -0.000000 0.137701 0.202702 -0.141414 -122.667608 50.126138 -0.000000 0.378196 0.455057 -0.371760
2.760000 12.940278 207.893696 -0.000000 0.137627 0.202777 -0.141396 -122.932824 49.408316 -0.000000 0.378335 0.454967 -0.371740
2.765000 13.281208 206.944073 -0.000000 0.137524 0.202888 -0.141368 -123.075676 48.851233 -0.000000 0.378497 0.454835 -0.371718
2.770000 13.684868 205.792894 -0.000000 0.137435 0.203056 -0.141366 -123.104639 48.420824 -0.000000 0.378651 0.454639 -0.371711
2.775000 14.139188 204.457763 -0.000000 0.137324 0.203249 -0.141360 -123.040993 48.087897 -0.000000 0.378834 0.454453 -0.371693
2.780000 14.662917 202.976794 -0.000000 0.137202 0.203500 -0.141352 -122.919906 47.833094 -0.000000 0.379052 0.454237 -0.371704
2.785000 15.202975 201.413117 -0.000000 0.137052 0.203756 -0.141361 -122.809996 47.580723 -0.000000 0.379280 0.454027 -0.371687
2.790000 15.783641 199.833596 -0.000000 0.136821 0.203946 -0.141280 -122.762954 47.304785 -0.000000 0.379544 0.453735 -0.371684
2.795000 16.363197 198.307771 -0.000000 0.136699 0.204190 -0.141327 -122.833508 46.955467 -0.000000 0.379886 0.453384 -0.371653
2.800000 16.971646 196.890361 -0.000000 0.136579 0.204509 -0.141465 -123.038310 46.550952 -0.000000 0.380252 0.452920 -0.371592
2.805000 17.649708 195.625746 -0.000000 0.136178 0.204871 -0.141339 -123.377534 46.137646 -0.000000 0.380651 0.452428 -0.371565
2.810000 18.224960 194.563921 -0.000000 0.135908 0.205376 -0.141312 -123.897228 45.641425 -0.000000 0.381071 0.451929 -0.371636
2.815000 18.713575 193.712606 -0.000000 0.135607 0.205760 -0.141260 -124.593564 45.117117 -0.000000 0.381611 0.451298 -0.371552
2.820000 19.107482 193.053639 -0.000000 0.135263 0.206279 -0.141176 -125.455415 44.610376 -0.000000 0.382158 0.450640 -0.371462
2.825000 19.383492 192.550437 -0.000000 0.134864 0.206921 -0.141184 -126.451876 44.149773 -0.000000 0.382728 0.450000 -0.371481
2.830000 19.577001 192.144242 -0.000000 0.134444 0.207526 -0.141242 -127.522975 43.773789 -0.000000 0.383390 0.449200 -0.371536
2.835000 19.636640 191.776816 -0.000000 0.133964 0.208149 -0.141209 -128.638233 43.417035 -0.000000 0.384047 0.448483 -0.371476
2.840000 19.674999 191.378429 -0.000000 0.133627 0.208877 -0.141272 -129.747090 43.089187 -0.000000 0.384692 0.447644 -0.371437
2.845000 19.732830 190.889252 -0.000000 0.133119 0.209482 -0.141173 -130.818193 42.763594 -0.000000 0.385379 0.446858 -0.371347
2.850000 19.889072 190.242279 -0.000000 0.132624 0.210191 -0.141200 -131.807183 42.483882 -0.000000 0.386011 0.445934 -0.371410
2.855000 20.093111 189.408573 -0.000000 0.132138 0.211049 -0.141295 -132.697845 42.237126 -0.000000 0.386669 0.445098 -0.371333
2.860000 20.295407 188.416717 -0.000000 0.131691 0.211795 -0.141281 -133.468452 42.017096 -0.000000 0.387378 0.444227 -0.371354
2.865000 20.577830 187.320844 -0.000000 0.131186 0.212522 -0.141170 -134.057694 41.913659 -0.000000 0.388113 0.443339 -0.371076
2.870000 20.988405 186.174306 -0.000000 0.130658 0.213351 -0.141254 -134.422206 41.994086 -0.000000 0.388792 0.442369 -0.371001
2.875000 21.395228 185.033446 -0.000000 0.130160 0.214187 -0.141311 -134.597790 42.182945 -0.000000 0.389349 0.441431 -0.371259
2.880000 21.906960 183.925346 -0.000000 0.129634 0.215046 -0.141283 -134.601116 42.565813 -0.000000 0.389983 0.440453 -0.371182
2.885000 22.504687 182.897810 -0.000000 0.129107 0.215939 -0.141260 -134.497735 43.122752 -0.000000 0.390682 0.439406 -0.371231
2.890000 23.086642 182.008471 -0.000000 0.128571 0.216867 -0.141362 -134.393209 43.748494 -0.000000 0.391312 0.438379 -0.371246
